<?xml version="1.0" standalone="no"?>
<!DOCTYPE svg PUBLIC "-//W3C//DTD SVG 20010904//EN"
 "http://www.w3.org/TR/2001/REC-SVG-20010904/DTD/svg10.dtd">
<svg version="1.0" xmlns="http://www.w3.org/2000/svg"
 width="3000.000000pt" height="2672.000000pt" viewBox="0 0 3000.000000 2672.000000"
 preserveAspectRatio="xMidYMid meet">

<g transform="translate(0.000000,2672.000000) scale(0.100000,-0.100000)"
fill="#000000" stroke="none">
<path d="M14625 26709 c-811 -29 -1613 -208 -2355 -526 -152 -65 -530 -248
-590 -285 -20 -13 -20 -17 -20 -835 l0 -823 -981 0 c-828 0 -984 -2 -993 -14
-313 -393 -551 -765 -770 -1203 -88 -176 -246 -531 -246 -553 0 -7 504 -11
1493 -12 l1492 -3 3 -232 2 -233 150 0 149 0 76 116 c496 761 1249 1293 2138
1509 323 79 580 108 952 107 1088 -1 1901 -311 2672 -1018 l92 -85 -271 -312
-271 -312 377 -3 376 -2 0 -790 0 -790 -2664 0 -2664 0 -9 -97 c-21 -253 -2
-589 47 -835 82 -403 269 -803 520 -1114 94 -116 271 -288 385 -375 419 -315
861 -462 1385 -462 727 0 1270 232 1931 826 l106 95 319 -321 c176 -177 357
-361 404 -410 l85 -87 -110 -111 c-599 -604 -1254 -956 -2028 -1089 -243 -41
-409 -54 -727 -54 -234 0 -339 4 -450 17 -627 78 -1117 258 -1640 603 -621
410 -1128 1091 -1357 1819 -111 355 -172 685 -189 1018 l-7 137 -1614 0 -1613
0 0 -42 c0 -88 21 -418 36 -563 26 -258 83 -603 138 -835 l13 -55 1631 -3
1632 -2 0 -1075 0 -1075 -1150 0 c-632 0 -1150 -2 -1150 -5 0 -22 318 -439
474 -622 l61 -72 882 0 883 -1 2 -707 3 -706 140 -73 c1589 -831 3473 -980
5185 -410 326 108 628 236 955 404 l150 77 6 335 c3 184 7 590 8 903 l1 567
1038 0 1038 0 86 118 c331 454 621 983 825 1507 59 153 173 488 173 511 0 12
-222 14 -1585 14 l-1585 0 0 375 0 375 1680 0 c924 0 1680 3 1680 8 0 4 11 86
25 182 52 371 60 497 60 950 0 455 -9 588 -61 950 -60 421 -168 865 -303 1248
l-50 142 350 0 349 0 0 625 0 625 -1860 0 -1860 0 0 653 c0 358 -3 865 -7
1125 l-6 473 -122 64 c-737 391 -1603 648 -2458 730 -142 13 -234 18 -577 29
-58 1 -199 -1 -315 -5z"/>
<path d="M14887 22569 c-376 -33 -751 -163 -1054 -366 -99 -66 -214 -155 -248
-192 l-18 -21 1584 0 1584 0 -25 21 c-71 57 -322 217 -431 273 -440 229 -919
327 -1392 285z"/>
<path d="M2270 9505 c-595 -75 -1118 -325 -1519 -726 -399 -399 -646 -909
-727 -1499 -24 -172 -24 -529 0 -700 68 -493 232 -897 519 -1275 85 -111 282
-312 402 -408 338 -273 753 -457 1190 -527 421 -68 958 -35 1367 84 392 115
777 358 1083 685 l46 49 -346 371 c-191 204 -350 371 -353 371 -4 0 -41 -29
-82 -65 -440 -384 -809 -530 -1290 -512 -164 6 -258 23 -410 73 -711 236
-1126 1044 -959 1867 81 401 318 768 632 978 224 150 457 224 737 236 450 19
820 -114 1194 -429 55 -45 111 -93 125 -104 l26 -22 328 377 327 376 -96 93
c-399 388 -842 609 -1394 697 -148 24 -641 30 -800 10z"/>
<path d="M6570 8930 l0 -510 760 0 760 0 0 -2000 0 -2000 555 0 555 0 0 2000
0 2000 760 0 760 0 0 510 0 510 -2075 0 -2075 0 0 -510z"/>
<path d="M12980 6930 l0 -2510 1910 0 1910 0 0 490 0 490 -1365 0 -1365 0 0
530 0 530 1185 0 1185 0 0 490 0 490 -1185 0 -1185 0 0 510 0 510 1345 0 1345
0 0 490 0 490 -1890 0 -1890 0 0 -2510z"/>
<path d="M19190 6930 l0 -2510 550 0 550 0 0 2010 0 2010 995 0 995 0 0 -2010
0 -2010 550 0 550 0 0 2510 0 2510 -2095 0 -2095 0 0 -2510z"/>
<path d="M25990 6930 l0 -2511 1188 4 c1251 4 1222 3 1468 52 172 35 317 84
479 164 178 88 293 169 425 301 116 116 203 235 274 379 198 393 229 943 79
1375 -207 594 -731 956 -1488 1026 -60 5 -383 10 -717 10 l-608 0 0 855 0 855
-550 0 -550 0 0 -2510z m2238 -150 c232 -25 382 -87 502 -209 132 -133 176
-265 167 -495 -8 -214 -53 -333 -172 -451 -124 -124 -282 -185 -530 -205 -75
-6 -336 -10 -615 -8 l-485 3 -3 688 -2 687 520 0 c291 0 564 -5 618 -10z"/>
<path d="M10535 2204 c-244 -36 -410 -112 -563 -258 -194 -184 -285 -404 -284
-681 2 -258 96 -482 278 -656 176 -168 372 -247 634 -257 293 -10 534 81 725
272 181 181 268 394 268 656 0 452 -292 811 -738 906 -71 15 -265 26 -320 18z
m255 -380 c91 -26 166 -72 235 -146 109 -115 157 -240 157 -403 0 -307 -208
-542 -498 -562 -104 -7 -188 8 -279 52 -127 62 -218 163 -272 303 -35 89 -44
265 -19 362 79 309 370 479 676 394z"/>
<path d="M14805 2204 c-156 -22 -246 -49 -367 -111 -215 -110 -379 -311 -454
-559 -26 -82 -28 -102 -28 -259 0 -156 3 -177 27 -258 126 -412 474 -666 913
-667 281 0 502 88 689 275 135 135 207 260 252 441 26 105 23 343 -6 449 -92
341 -364 599 -706 670 -79 16 -262 27 -320 19z m230 -376 c137 -29 284 -147
349 -279 171 -348 -14 -760 -372 -830 -132 -25 -301 8 -405 80 -65 45 -151
142 -185 211 -90 179 -79 424 26 586 133 202 343 286 587 232z"/>
<path d="M4797 2178 c-21 -54 -758 -1782 -763 -1789 -3 -5 83 -9 198 -9 l203
0 80 200 80 200 385 -2 385 -3 80 -197 79 -198 203 0 c112 0 203 3 203 8 0 4
-172 411 -382 905 l-382 897 -182 0 c-136 0 -183 -3 -187 -12z m307 -763 l115
-280 -236 -3 c-130 -1 -237 -1 -239 1 -2 2 49 132 113 290 65 158 121 283 125
279 4 -4 59 -133 122 -287z"/>
<path d="M6317 2173 c-4 -3 -7 -408 -7 -900 l0 -893 200 0 200 0 0 720 0 720
430 0 430 0 0 180 0 180 -623 0 c-343 0 -627 -3 -630 -7z"/>
<path d="M7950 1280 l0 -900 195 0 195 0 0 269 0 269 238 5 c205 3 248 7 317
26 301 84 475 305 475 600 -1 346 -218 580 -576 621 -49 5 -259 10 -466 10
l-378 0 0 -900z m871 512 c53 -26 104 -73 126 -116 10 -18 18 -65 21 -113 4
-75 2 -88 -23 -138 -17 -36 -43 -68 -72 -90 -74 -56 -120 -65 -340 -65 l-193
0 0 276 0 276 218 -4 c201 -3 220 -5 263 -26z"/>
<path d="M11956 2153 c9 -16 143 -212 297 -438 154 -225 280 -415 280 -421 0
-6 -138 -212 -306 -458 -169 -246 -307 -449 -307 -451 0 -3 99 -5 220 -5 l221
0 201 305 c146 222 204 303 212 295 6 -6 97 -142 202 -303 l191 -292 233 -3
c187 -2 231 0 223 10 -71 90 -613 903 -609 914 3 7 136 204 296 438 159 233
290 427 290 430 0 4 -100 5 -221 4 l-222 -3 -186 -287 c-102 -158 -189 -288
-193 -288 -3 0 -91 131 -194 290 l-188 290 -229 0 -229 0 18 -27z"/>
<path d="M16547 1758 c-5 -433 -14 -561 -48 -730 -25 -125 -53 -198 -97 -249
-48 -56 -101 -79 -183 -79 l-65 0 -13 -157 c-8 -105 -9 -159 -2 -166 16 -16
274 -22 340 -7 166 36 275 151 342 359 59 185 85 411 96 824 l6 267 259 0 258
0 0 -720 0 -720 195 0 195 0 0 900 0 900 -639 0 -639 0 -5 -422z"/>
<path d="M18537 1843 c-6 -347 -17 -486 -57 -678 -23 -113 -80 -301 -115 -381
l-24 -54 -80 0 -81 0 0 -365 0 -365 175 0 175 0 1 28 c0 15 6 99 12 187 l12
160 565 0 565 0 3 -187 2 -188 163 0 163 0 23 348 c12 191 25 355 28 365 4 15
-6 17 -106 17 l-111 0 0 725 0 725 -654 0 -653 0 -6 -337z m923 -568 l0 -545
-351 0 c-330 0 -351 1 -344 18 26 62 76 223 94 300 38 161 52 292 58 535 l6
237 268 0 269 0 0 -545z"/>
<path d="M20440 1280 l0 -900 188 0 189 0 391 588 392 587 0 -587 0 -588 195
0 195 0 0 900 0 900 -182 -2 -183 -3 -395 -589 -395 -588 -3 591 -2 591 -195
0 -195 0 0 -900z"/>
<path d="M22520 1280 l0 -900 200 0 200 0 0 360 0 360 365 0 365 0 0 -360 0
-360 195 0 195 0 0 900 0 900 -195 0 -195 0 0 -360 0 -360 -365 0 -365 0 0
360 0 360 -200 0 -200 0 0 -900z"/>
<path d="M24580 1280 l0 -900 195 0 195 0 0 720 0 720 430 0 430 0 0 180 0
180 -625 0 -625 0 0 -900z"/>
</g>
</svg>
